<svg xmlns="http://www.w3.org/2000/svg" viewBox="0 0 189.32 49.24"><defs><style>.cls-1{fill:#fff;stroke:#fff;stroke-miterlimit:10;}</style></defs><g id="B"><path class="cls-1" d="M145,144q.73-7.74,1-12.16c.24-4,.46-9.57.69-16.6s.33-12,.33-14.87c0-1,0-2.48,0-4.36,3.11.07,5.59.11,7.41.11,2.56,0,5.54-.06,8.93-.16s6.32-.16,8.76-.16a53.06,53.06,0,0,1,6.26.25,15.61,15.61,0,0,1,4.3,1.12,10.27,10.27,0,0,1,3.08,2,9.91,9.91,0,0,1,2.14,3.37,13.06,13.06,0,0,1,.88,4.82,14.22,14.22,0,0,1-.51,3.83,11.59,11.59,0,0,1-1.44,3.25,10.32,10.32,0,0,1-2.09,2.37,10.82,10.82,0,0,1-2.27,1.48,20.22,20.22,0,0,1-3,1.06,18,18,0,0,1,3,.72,10.49,10.49,0,0,1,2.41,1.3,9.65,9.65,0,0,1,2.3,2.3,10.24,10.24,0,0,1,1.53,3.15,13,13,0,0,1,.51,3.67,14.19,14.19,0,0,1-.88,5,11.7,11.7,0,0,1-2.46,4,11.28,11.28,0,0,1-3.48,2.46,16.9,16.9,0,0,1-4.39,1.41,62.57,62.57,0,0,1-6.67.42c-3.22.09-6.64.14-10.24.14l-9.25,0Zm14.86-9.63h6.75a17.69,17.69,0,0,0,3.94-.32,6.36,6.36,0,0,0,2.36-1,4.32,4.32,0,0,0,1.29-1.72,6.16,6.16,0,0,0,.47-2.43,5,5,0,0,0-.39-2,3.67,3.67,0,0,0-1.16-1.47,4.7,4.7,0,0,0-1.89-.86,16.57,16.57,0,0,0-3.52-.27h-7.42Zm.8-19.66h5a34.87,34.87,0,0,0,3.5-.12,10.81,10.81,0,0,0,2-.44,4.33,4.33,0,0,0,2.73-2.7,6.13,6.13,0,0,0,.29-1.83,4.39,4.39,0,0,0-.61-2.32,3.6,3.6,0,0,0-2-1.51,13.11,13.11,0,0,0-4.18-.5h-6.33Z" transform="translate(-144.41 -95.3)"/></g><g id="R"><path class="cls-1" d="M264.78,144c.28-2.57.5-4.9.66-7s.31-4.46.42-7.19.21-5.6.27-8.62.08-5.43.08-7.22c1.84,0,3.31.07,4.44.07s2.6,0,4.29-.1,3.32-.1,4.92-.1a49.93,49.93,0,0,1,5,.22,12,12,0,0,1,3,.64,8.62,8.62,0,0,1,2.27,1.17,7.29,7.29,0,0,1,1.54,1.55,6.45,6.45,0,0,1,.95,2A8.57,8.57,0,0,1,293,122a9.85,9.85,0,0,1-.37,2.76,8,8,0,0,1-1.18,2.42,7.67,7.67,0,0,1-2,1.95,17.69,17.69,0,0,1-3.41,1.68l1.14,2.79c.32.78.66,1.57,1,2.38l2.95,6.44c.13.27.36.82.7,1.64-2.42,0-4,0-4.87,0-1.06,0-2.79,0-5.19,0-.23-.76-.66-2.17-1.27-4.24-.25-.86-.47-1.53-.64-2-.35-1-.87-2.49-1.56-4.37L276,127.2a12.49,12.49,0,0,0,2.33.22,8.38,8.38,0,0,0,2.91-.48,3.9,3.9,0,0,0,2-1.5,3.75,3.75,0,0,0,.67-2.13,2.79,2.79,0,0,0-.51-1.66,3,3,0,0,0-1.59-1.06,11.51,11.51,0,0,0-3.35-.35l-1.59,0-1.93.06c-.18,3-.35,6.66-.49,11s-.24,8.56-.29,12.72l-4.77,0C268.53,144,267,144,264.78,144Z" transform="translate(-144.41 -95.3)"/></g><g id="v"><path class="cls-1" d="M235,144l-.82-2.68-5.36-15.45L224.6,114c2,0,3.76,0,5.31,0,1,0,2.44,0,4.48,0,.33,1.3.6,2.29.79,3q.39,1.32,1.5,4.77l3.23,10.4c.32,1.08.72,2.5,1.19,4.24l1-2.53,7.66-16.8.45-1c.17-.4.44-1.06.8-2,2.13,0,3.84,0,5.13,0,.8,0,2.4,0,4.79,0-1.49,2.78-3.19,6-5.07,9.75l-7.58,15c-.73,1.47-1.55,3.2-2.46,5.21-2.46,0-4.22,0-5.27,0S237.72,144,235,144Z" transform="translate(-144.41 -95.3)"/></g><g id="v-2" data-name="v"><path class="cls-1" d="M215.7,113.89l.81,2.68L221.87,132l4.23,11.87c-2,0-3.77,0-5.32,0-.95,0-2.44,0-4.47,0-.34-1.31-.61-2.29-.8-3q-.39-1.32-1.49-4.77l-3.24-10.4c-.32-1.09-.72-2.5-1.19-4.24l-1,2.52-7.66,16.8-.45,1.06c-.17.39-.44,1.06-.8,2-2.13,0-3.83,0-5.12,0-.81,0-2.41,0-4.8,0q2.25-4.17,5.08-9.76l7.57-15c.73-1.46,1.55-3.2,2.46-5.2,2.46,0,4.22,0,5.28,0S213,113.92,215.7,113.89Z" transform="translate(-144.41 -95.3)"/></g><g id="v-3" data-name="v"><path class="cls-1" d="M307,143.83l-.82-2.68-5.36-15.45-4.22-11.86c2,0,3.76,0,5.31,0,.95,0,2.44,0,4.48,0,.33,1.3.6,2.29.79,3q.39,1.32,1.5,4.78l3.23,10.4c.33,1.08.72,2.5,1.19,4.24l1-2.53,7.66-16.8.45-1c.17-.4.44-1.07.8-2,2.13,0,3.84,0,5.13,0,.8,0,2.4,0,4.79,0q-2.24,4.17-5.07,9.75l-7.58,15c-.73,1.47-1.55,3.2-2.46,5.21-2.46,0-4.22,0-5.27,0S309.67,143.8,307,143.83Z" transform="translate(-144.41 -95.3)"/></g></svg>