<svg id="Layer_2" data-name="Layer 2" xmlns="http://www.w3.org/2000/svg" viewBox="0 0 125 238">
<defs><style>.cls-1{fill:#9e00c4;}.cls-2{fill:#c6b300;}</style></defs>
<path class="cls-1" d="M790,293.16V412.5c0,32.86-28,59.5-62.5,59.5H665V234h62.86C762.18,234,790,260.48,790,293.16Z" 
transform="translate(-665 -234)"/>
<path class="cls-2" d="M727,468a58.5,58.5,0,1,1,59-59v.47A58.56,58.56,0,0,1,727.5,468H727Z" 
transform="translate(-665 -234)"/>
<path d="M727.5,355A54.49,54.49,0,0,1,782,409.06v.44A54.56,54.56,0,0,1,727.5,464h-.44a54.5,54.5,0,0,1,
.44-109m0-8a62.5,62.5,0,0,0-.5,125h.5A62.5,62.5,0,0,0,790,409.5c0-.17,0-.33,0-.5a62.49,62.49,0,0,0-62.49-62Z" 
transform="translate(-665 -234)"/></svg>